<?xml version="1.0" encoding="UTF-8"?>
<svg width="24px" height="24px" viewBox="0 0 24 24" version="1.1" xmlns="http://www.w3.org/2000/svg" xmlns:xlink="http://www.w3.org/1999/xlink">

    <g id="远控" stroke="none" stroke-width="1" fill="none" fill-rule="evenodd">
        <g id="切图" transform="translate(-18.000000, -13.000000)" fill="#434959" fill-rule="nonzero">
            <g id="强光灯" transform="translate(18.000000, 13.000000)">
                <path d="M10.7058824,6 L16.5294118,6 C20.1030098,6 23,8.8969902 23,12.4705882 C23,16.0441863 20.1030098,18.9411765 16.5294118,18.9411765 L10.7058824,18.9411765 C10.3485172,18.9411765 10.0588235,18.6514828 10.0588235,18.2941176 L10.0588235,6.64705882 C10.0588235,6.28969363 10.3485172,6 10.7058824,6 Z M1.8627451,13.3333333 L7.03921569,13.3333333 C7.51570261,13.3333333 7.90196078,12.9470752 7.90196078,12.4705882 C7.90196078,11.9941013 7.51570261,11.6078431 7.03921569,11.6078431 L1.8627451,11.6078431 C1.38625817,11.6078431 1,11.9941013 1,12.4705882 C1,12.9470752 1.38625817,13.3333333 1.8627451,13.3333333 Z M1.8627451,9.01960784 L7.03921569,9.01960784 C7.51570261,9.01960784 7.90196078,8.63334967 7.90196078,8.15686275 C7.90196078,7.68037582 7.51570261,7.29411765 7.03921569,7.29411765 L1.8627451,7.29411765 C1.38625817,7.29411765 1,7.68037582 1,8.15686275 C1,8.63334967 1.38625817,9.01960784 1.8627451,9.01960784 Z M1.8627451,17.6470588 L7.03921569,17.6470588 C7.51570261,17.6470588 7.90196078,17.2608007 7.90196078,16.7843137 C7.90196078,16.3078268 7.51570261,15.9215686 7.03921569,15.9215686 L1.8627451,15.9215686 C1.38625817,15.9215686 1,16.3078268 1,16.7843137 C1,17.2608007 1.38625817,17.6470588 1.8627451,17.6470588 Z" id="形状"></path>
            </g>
        </g>
    </g>
</svg>
