<?xml version="1.0" encoding="UTF-8"?>
<svg width="20px" height="20px" viewBox="0 0 20 20" version="1.1" xmlns="http://www.w3.org/2000/svg" xmlns:xlink="http://www.w3.org/1999/xlink">

    <defs>
        <polygon id="path-1" points="0 0 6.50889514 0 6.50889514 14.7730221 0 14.7730221"></polygon>
        <polygon id="path-3" points="0 0 5.51477624 0 5.51477624 5.51255493 0 5.51255493"></polygon>
    </defs>
    <g id="远控" stroke="none" stroke-width="1" fill="none" fill-rule="evenodd">
        <g id="切图" transform="translate(-84.000000, -180.000000)">
            <rect fill="#F1F1F1" x="0" y="0" width="600" height="600"></rect>
            <g id="储物柜-disable" transform="translate(84.000000, 180.000000)">
                <g id="编组" transform="translate(2.000000, 2.002170)">
                    <mask id="mask-2" fill="white">
                        <use xlink:href="#path-1"></use>
                    </mask>
                    <g id="Clip-2"></g>
                    <path d="M6.14896353,14.7730221 L0.359875087,14.7730221 C0.161144004,14.7730221 -5.65219234e-05,14.6118216 -5.65219234e-05,14.4130905 L-5.65219234e-05,0.359931608 C-5.65219234e-05,0.161200526 0.161144004,0 0.359875087,0 L6.14896353,0 C6.34769461,0 6.50889514,0.161200526 6.50889514,0.359931608 L6.50889514,14.4130905 C6.50889514,14.6096737 6.34769461,14.7730221 6.14896353,14.7730221" id="Fill-1" fill="#A6A6A6" mask="url(#mask-2)"></path>
                </g>
                <path d="M6.98982323,10.79402 C6.68957877,10.79402 6.44664754,10.5512018 6.44664754,10.2508443 L6.44664754,8.52206475 C6.44664754,8.22182029 6.68957877,7.97900211 6.98982323,7.97900211 C7.29006769,7.97900211 7.53299891,8.22182029 7.53299891,8.52206475 L7.53299891,10.2508443 C7.53299891,10.5512018 7.29006769,10.79402 6.98982323,10.79402" id="Fill-3" fill="#FFFFFF"></path>
                <path d="M5.88588224,4.71128884 L4.62080855,4.71128884 C4.56993882,4.71128884 4.52799955,4.66934957 4.52799955,4.61859289 L4.52799955,4.57439274 C4.52799955,4.52363606 4.56993882,4.48169679 4.62080855,4.48169679 L5.88588224,4.48169679 C5.93663892,4.48169679 5.97857819,4.52363606 5.97857819,4.57439274 L5.97857819,4.61859289 C5.97857819,4.66934957 5.93663892,4.71128884 5.88588224,4.71128884 M5.88588224,4.03788665 L4.62080855,4.03788665 C4.56993882,4.03788665 4.52799955,3.99594738 4.52799955,3.94519069 L4.52799955,3.90099055 C4.52799955,3.85023386 4.56993882,3.80829459 4.62080855,3.80829459 L5.88588224,3.80829459 C5.93663892,3.80829459 5.97857819,3.85023386 5.97857819,3.90099055 L5.97857819,3.94519069 C5.97857819,3.99594738 5.93663892,4.03788665 5.88588224,4.03788665 M5.88588224,3.36448445 L4.62080855,3.36448445 C4.56993882,3.36448445 4.52799955,3.32254518 4.52799955,3.27178849 L4.52799955,3.22758835 C4.52799955,3.17683166 4.56993882,3.1348924 4.62080855,3.1348924 L5.88588224,3.1348924 C5.93663892,3.1348924 5.97857819,3.17683166 5.97857819,3.22758835 L5.97857819,3.27178849 C5.97857819,3.32254518 5.93663892,3.36448445 5.88588224,3.36448445" id="Fill-5" fill="#C6C5CA"></path>
                <path d="M11.8736792,16.3755599 L13.8188246,14.4304144 C13.6687024,13.6178553 13.920338,12.7656177 14.5165312,12.1672766 C14.8543063,11.8295016 15.273812,11.6043183 15.7287004,11.4961353 L15.7287004,2.34659243 C15.7287004,2.15453094 15.5740564,2 15.3819949,2 L9.56645424,2 C9.37439274,2 9.21974876,2.15453094 9.21974876,2.34659243 L9.21974876,16.4263166 C9.21974876,16.6183781 9.37439274,16.7730221 9.56645424,16.7730221 L11.6617219,16.7730221 C11.6992525,16.6250477 11.7610875,16.4860038 11.8736792,16.3755599 Z" id="Fill-7" fill="#A6A6A6"></path>
                <path d="M14.2118216,10.79402 C13.9115771,10.79402 13.6686459,10.5512018 13.6686459,10.2508443 L13.6686459,8.52206475 C13.6686459,8.22182029 13.9115771,7.97900211 14.2118216,7.97900211 C14.512066,7.97900211 14.7549972,8.22182029 14.7549972,8.52206475 L14.7549972,10.2508443 C14.7527364,10.5512018 14.5099182,10.79402 14.2118216,10.79402" id="Fill-9" fill="#FFFFFF"></path>
                <path d="M13.1078806,4.71128884 L11.8428069,4.71128884 C11.7919371,4.71128884 11.7499979,4.66934957 11.7499979,4.61859289 L11.7499979,4.57439274 C11.7499979,4.52363606 11.7919371,4.48169679 11.8428069,4.48169679 L13.1078806,4.48169679 C13.1586373,4.48169679 13.2005765,4.52363606 13.2005765,4.57439274 L13.2005765,4.61859289 C13.1984287,4.66934957 13.1586373,4.71128884 13.1078806,4.71128884 M13.1078806,4.03788665 L11.8428069,4.03788665 C11.7919371,4.03788665 11.7499979,3.99594738 11.7499979,3.94519069 L11.7499979,3.90099055 C11.7499979,3.85023386 11.7919371,3.80829459 11.8428069,3.80829459 L13.1078806,3.80829459 C13.1586373,3.80829459 13.2005765,3.85023386 13.2005765,3.90099055 L13.2005765,3.94519069 C13.1984287,3.99594738 13.1586373,4.03788665 13.1078806,4.03788665 M13.1078806,3.36448445 L11.8428069,3.36448445 C11.7919371,3.36448445 11.7499979,3.32254518 11.7499979,3.27178849 L11.7499979,3.22758835 C11.7499979,3.17683166 11.7919371,3.1348924 11.8428069,3.1348924 L13.1078806,3.1348924 C13.1586373,3.1348924 13.2005765,3.17683166 13.2005765,3.22758835 L13.2005765,3.27178849 C13.1984287,3.32254518 13.1586373,3.36448445 13.1078806,3.36448445" id="Fill-11" fill="#C6C5CA"></path>
                <g id="编组" transform="translate(12.485224, 12.287075)">
                    <mask id="mask-4" fill="white">
                        <use xlink:href="#path-3"></use>
                    </mask>
                    <g id="Clip-14"></g>
                    <path d="M3.33615001,2.1786658 C3.06020998,1.90272577 3.06020998,1.45665475 3.33615001,1.18071472 C3.61209004,0.904661646 4.05816106,0.904661646 4.33410109,1.18071472 C4.61015416,1.45665475 4.61015416,1.90272577 4.33410109,2.1786658 C4.05590018,2.45460583 3.60994221,2.45460583 3.33615001,2.1786658 L3.33615001,2.1786658 Z M5.02299029,2.86970284 C5.67875765,2.21393548 5.67875765,1.14974071 5.02299029,0.491825517 C4.36722294,-0.163941839 3.30302816,-0.163941839 2.64511297,0.491825517 C2.13279826,1.00402719 2.0246153,1.76582967 2.3138945,2.3862143 L0,4.7001088 L0.0640958612,5.44857211 L0.812559171,5.51255493 L3.12645367,3.19866043 C3.74898614,3.48793963 4.50852775,3.38201755 5.02299029,2.86970284 Z" id="Fill-13" fill="#A6A6A6" mask="url(#mask-4)"></path>
                </g>
            </g>
        </g>
    </g>
</svg>
