<?xml version="1.0" encoding="UTF-8"?>
<svg width="24px" height="24px" viewBox="0 0 24 24" version="1.1" xmlns="http://www.w3.org/2000/svg" xmlns:xlink="http://www.w3.org/1999/xlink">

    <g id="远控" stroke="none" stroke-width="1" fill="none" fill-rule="evenodd">
        <g id="切图" transform="translate(-258.000000, -13.000000)" fill="#FFFFFF" fill-rule="nonzero">
            <g id="警笛-down" transform="translate(258.000000, 13.000000)">
                <path d="M13,6.03 C15.2810958,6.29872875 17.0000564,8.23212974 17,10.529 L17,14.626 C16.9998902,14.9015651 17.1134984,15.1649623 17.314,15.354 L17.686,15.704 C17.8865016,15.8930377 18,16.1564349 18,16.432 L18,17 C18,17.5522847 17.5522847,18 17,18 L14.5,18 C14.167,19.333 13.333,20 12,20 C10.667,20 9.833,19.333 9.5,18 L7,18 C6.44771525,18 6,17.5522847 6,17 L6,16.414 C6,16.1488052 6.10545063,15.8944927 6.293,15.707 L6.707,15.293 C6.89454937,15.1055073 6.99994336,14.8511948 7,14.586 L7,10.5 C6.99955989,8.2078739 8.72206673,6.28168064 11,6.027 L11,5 C11,4.44771525 11.4477153,4 12,4 C12.5522847,4 13,4.44771525 13,5 L13,6.03 L13,6.03 Z M6.226,6.213 C6.45713117,6.06167398 6.76717397,6.12636884 6.91849999,6.3575 C7.06982601,6.58863117 7.00513116,6.89867398 6.774,7.05 C6.352,7.326 6.022,7.746 5.781,8.324 C5.537,8.909 5.45,9.664 5.528,10.59 C5.55119596,10.8653139 5.34681394,11.107304 5.0715,11.1305 C4.79618605,11.153696 4.55419596,10.9493139 4.531,10.674 C4.441,9.599 4.546,8.687 4.858,7.939 C5.172,7.184 5.628,6.604 6.226,6.213 Z M17.774,6.213 C18.371,6.604 18.828,7.184 19.142,7.939 C19.454,8.687 19.559,9.599 19.469,10.674 C19.445804,10.9493139 19.2038139,11.1536959 18.9285,11.1305 C18.6531861,11.107304 18.4488041,10.8653139 18.472,10.59 C18.55,9.664 18.463,8.91 18.219,8.324 C17.979,7.746 17.648,7.326 17.226,7.05 C17.0764844,6.95210923 16.9905503,6.78188878 17.0005684,6.60345904 C17.0105864,6.4250293 17.1150346,6.265498 17.2745684,6.18495904 C17.4341021,6.10442007 17.6244844,6.11510923 17.774,6.213 Z M4.146,4.278 C4.27229339,4.15152798 4.45646531,4.10203973 4.62913998,4.148177 C4.80181466,4.19431427 4.9367587,4.32906771 4.98313999,4.501677 C5.02952127,4.6742863 4.98029339,4.85852798 4.854,4.985 C4.244,5.595 3.784,6.361 3.474,7.29 C3.16,8.235 3,9.35 3,10.632 C3,10.9081424 2.77614237,11.132 2.5,11.132 C2.22385763,11.132 2,10.9081424 2,10.632 C2,9.247 2.174,8.028 2.526,6.974 C2.883,5.902 3.423,5 4.146,4.278 Z M19.854,4.278 C20.577,5.001 21.117,5.902 21.474,6.974 C21.826,8.028 22,9.247 22,10.632 C22,10.9081424 21.7761424,11.132 21.5,11.132 C21.2238576,11.132 21,10.9081424 21,10.632 C21,9.349 20.84,8.235 20.526,7.29 C20.216,6.361 19.756,5.595 19.146,4.985 C18.9507673,4.7894912 18.9509912,4.47273266 19.1465,4.2775 C19.3420088,4.08226734 19.6587673,4.0824912 19.854,4.278 Z" id="形状"></path>
            </g>
        </g>
    </g>
</svg>
