<?xml version="1.0" encoding="UTF-8"?>
<svg width="24px" height="24px" viewBox="0 0 24 24" version="1.1" xmlns="http://www.w3.org/2000/svg" xmlns:xlink="http://www.w3.org/1999/xlink">

    <g id="远控" stroke="none" stroke-width="1" fill="none" fill-rule="evenodd">
        <g id="切图" transform="translate(-368.000000, -13.000000)" fill="#FFFFFF">
            <g id="紧急驻停-down" transform="translate(368.000000, 13.000000)">
                <path d="M12.6,6.12556177 C9.68691604,6.12556177 7.32556177,8.48691604 7.32556177,11.4 C7.32556177,14.313084 9.68691604,16.6744382 12.6,16.6744382 C15.513084,16.6744382 17.8744382,14.313084 17.8744382,11.4 C17.8744382,8.48691604 15.513084,6.12556177 12.6,6.12556177 M12.6,3 C17.2391614,3 21,6.76083855 21,11.4 C21,16.0391614 17.2391614,19.8 12.6,19.8 C7.96083855,19.8 4.2,16.0391614 4.2,11.4 C4.2,6.76083855 7.96083855,3 12.6,3" id="Fill-3" opacity="0.9"></path>
                <path d="M15.8385051,8.88155655 L14.2902113,9.77544489 C13.9891229,9.46207294 13.6068317,9.23862429 13.1860018,9.13004119 L13.1860018,7.33945146 C14.2363886,7.49088644 15.1871002,8.0438351 15.83813,8.88193162 L15.8385051,8.88155655 Z M12.0131543,7.33907639 L12.0135294,9.12966612 C11.5869797,9.23984327 11.2000938,9.46816784 10.8973176,9.78838485 L9.35014902,8.89562171 C10.0014601,8.04974247 10.9569539,7.49135528 12.0135294,7.33907639 L12.0131543,7.33907639 Z M8.77422725,9.91609658 L10.3296474,10.8139232 C10.224815,11.2206879 10.2310037,11.6481752 10.3476508,12.051658 L8.79888818,12.9463903 C8.59925656,12.4553284 8.4969559,11.930135 8.49760913,11.3999719 C8.49760913,10.8764663 8.59531831,10.3764027 8.77422725,9.91609658 L8.77422725,9.91609658 Z M16.702294,11.3999719 C16.702294,11.9532018 16.5929607,12.4806457 16.3944543,12.9620495 L14.8472858,12.0689113 C14.9117042,11.8517451 14.9443354,11.6265149 14.9441479,11.3999719 C14.9441479,11.1913385 14.9168615,10.9889876 14.8660393,10.7963886 L16.4194903,9.90015606 C16.6019624,10.3646817 16.702294,10.8706527 16.702294,11.3999719 L16.702294,11.3999719 Z M12.5999531,9.83723772 C13.4630856,9.8368628 14.1630622,10.536183 14.1635312,11.3993155 C14.1639061,12.262448 13.4644921,12.9624246 12.6013596,12.9627996 L12.5999531,12.9627996 C11.7369144,12.9627996 11.0372191,12.2631044 11.0372191,11.3999719 C11.0372191,10.5369331 11.7369144,9.83723772 12.5999531,9.83723772 L12.5999531,9.83723772 Z M12.0135294,13.6703714 L12.0135294,15.4609611 C10.9801145,15.3120579 10.0424366,14.7742996 9.39196946,13.9574884 L10.9454204,13.0608807 C11.240789,13.3555929 11.6095777,13.5660078 12.0135294,13.6703714 L12.0135294,13.6703714 Z M14.2417334,13.0733519 L15.7970597,13.9708034 C15.1469676,14.7803945 14.2136968,15.3129018 13.1860018,15.4609611 L13.1860018,13.6699963 C13.5842336,13.567133 13.9483339,13.361219 14.2417334,13.0729768 L14.2417334,13.0733519 Z" id="Fill-5" opacity="0.8"></path>
                <polygon id="三角形" points="4.8 16.8 6.6 19.2 3 19.2"></polygon>
            </g>
        </g>
    </g>
</svg>
