<?xml version="1.0" encoding="UTF-8"?>
<svg width="20px" height="20px" viewBox="0 0 20 20" version="1.1" xmlns="http://www.w3.org/2000/svg" xmlns:xlink="http://www.w3.org/1999/xlink">

    <g id="远控" stroke="none" stroke-width="1" fill="none" fill-rule="evenodd">
        <g id="切图" transform="translate(-51.000000, -313.000000)" fill="#3771FF">
            <g id="紧急驻车-down" transform="translate(51.000000, 313.000000)">
                <path d="M10.5333333,4.77827713 C7.94392537,4.77827713 5.8449438,6.87725871 5.8449438,9.46666667 C5.8449438,12.0560746 7.94392537,14.1550562 10.5333333,14.1550562 C13.1227413,14.1550562 15.2217229,12.0560746 15.2217229,9.46666667 C15.2217229,6.87725871 13.1227413,4.77827713 10.5333333,4.77827713 M10.5333333,2 C14.6570324,2 18,5.3429676 18,9.46666667 C18,13.5903657 14.6570324,16.9333333 10.5333333,16.9333333 C6.40963427,16.9333333 3.06666667,13.5903657 3.06666667,9.46666667 C3.06666667,5.3429676 6.40963427,2 10.5333333,2" id="Fill-3" opacity="0.9"></path>
                <path d="M13.4120045,7.22805026 L12.0357434,8.02261768 C11.7681093,7.74406483 11.4282948,7.54544382 11.0542238,7.4489255 L11.0542238,5.85729019 C11.987901,5.99189906 12.832978,6.48340898 13.4116711,7.22838366 L13.4120045,7.22805026 Z M10.0116927,5.85695679 L10.0120261,7.44859211 C9.63287082,7.54652735 9.28897224,7.74948253 9.01983784,8.03411987 L7.64457691,7.24055263 C8.22352009,6.48865998 9.0728479,5.9923158 10.0120261,5.85695679 L10.0116927,5.85695679 Z M7.13264645,8.14764141 L8.5152421,8.94570949 C8.42205776,9.30727809 8.4275588,9.68726685 8.53124514,10.0459182 L7.15456727,10.8412358 C6.97711694,10.4047363 6.88618302,9.93789774 6.88676367,9.46664166 C6.88676367,9.00130337 6.97361627,8.55680237 7.13264645,8.14764141 L7.13264645,8.14764141 Z M14.1798169,9.46664166 C14.1798169,9.95840163 14.0826317,10.4272406 13.9061816,10.8551551 L12.5309207,10.0612545 C12.5881815,9.86821785 12.617187,9.6680132 12.6170203,9.46664166 C12.6170203,9.28118981 12.5927657,9.10132235 12.5475905,8.9301232 L13.9284358,8.13347205 C14.0906333,8.54638373 14.1798169,8.99613573 14.1798169,9.46664166 L14.1798169,9.46664166 Z M10.5332917,8.07754464 C11.3005206,8.07721138 11.9227219,8.69882932 11.9231388,9.46605822 C11.9234721,10.2332871 11.3017708,10.8554885 10.5345419,10.8558219 L10.5332917,10.8558219 C9.76614611,10.8558219 9.14419477,10.2338706 9.14419477,9.46664166 C9.14419477,8.69949611 9.76614611,8.07754464 10.5332917,8.07754464 L10.5332917,8.07754464 Z M10.0120261,11.4847746 L10.0120261,13.0764099 C9.09343514,12.9440514 8.25994366,12.4660441 7.68175063,11.7399897 L9.06259595,10.9430051 C9.32514577,11.2049715 9.65295796,11.392007 10.0120261,11.4847746 L10.0120261,11.4847746 Z M11.9926519,10.9540905 L13.3751642,11.7518252 C12.7973045,12.4714618 11.9677305,12.9448016 11.0542238,13.0764099 L11.0542238,11.4844412 C11.4082077,11.3930072 11.7318524,11.2099724 11.9926519,10.9537571 L11.9926519,10.9540905 Z" id="Fill-5" opacity="0.8"></path>
                <polygon id="三角形" points="3.6 14.2666667 5.2 16.4 2 16.4"></polygon>
            </g>
        </g>
    </g>
</svg>
