<?xml version="1.0" encoding="UTF-8"?>
<svg width="24px" height="24px" viewBox="0 0 24 24" version="1.1" xmlns="http://www.w3.org/2000/svg" xmlns:xlink="http://www.w3.org/1999/xlink">

    <g id="远控" stroke="none" stroke-width="1" fill="none" fill-rule="evenodd">
        <g id="切图" transform="translate(-18.000000, -45.000000)" fill="#434959" fill-rule="nonzero">
            <g id="储物柜" transform="translate(18.000000, 45.000000)">
                <path d="M12.0946,3 C14.2213,3 16.1284,4.188 17.0023,6.01230001 C17.2795,6.59010001 17.4613,7.42530002 17.4946,8.1597 L17.5,8.4 C18.9911688,8.4 20.2,9.60883117 20.2,11.1 L20.2,18.3 C20.2,19.7911688 18.9911688,21 17.5,21 L6.7,21 C5.20883117,21 4,19.7911688 4,18.3 L4,11.1 C4,9.60883117 5.20883117,8.4 6.7,8.4 L6.7,8.157 C6.7,5.2977 9.12639999,3 12.0946,3 Z M12.1,12.45 C11.6437226,12.4500602 11.2596844,12.7915564 11.2063,13.2447 L11.2,13.35 L11.2,16.05 L11.2063,16.1553 C11.2601528,16.6080458 11.6440626,16.948997 12.1,16.948997 C12.5559373,16.948997 12.9398472,16.6080458 12.9937,16.1553 L13,16.05 L13,13.35 L12.9937,13.2447 C12.9403155,12.7915564 12.5562773,12.4500602 12.1,12.45 Z M12.0946,4.80000001 C10.1614,4.80000001 8.59989999,6.222 8.5045,7.98600001 L8.49999999,8.157 L8.49999999,8.4 L15.7,8.4 C15.7,7.8681 15.5623,7.1715 15.3787,6.789 C14.8063,5.5947 13.5319,4.80000001 12.0946,4.80000001 Z" id="形状"></path>
            </g>
        </g>
    </g>
</svg>
