<?xml version="1.0" encoding="UTF-8"?>
<svg width="24px" height="24px" viewBox="0 0 24 24" version="1.1" xmlns="http://www.w3.org/2000/svg" xmlns:xlink="http://www.w3.org/1999/xlink">

    <g id="远控" stroke="none" stroke-width="1" fill="none" fill-rule="evenodd">
        <g id="切图" transform="translate(-184.000000, -13.000000)" fill="#FFFFFF" fill-rule="nonzero">
            <g id="警灯-down2" transform="translate(184.000000, 13.000000)">
                <path d="M6.08320966,14.3701137 C6.08320966,11.036676 8.786258,8.33313429 12.1230436,8.33313429 C15.4598293,8.33313429 18.1628952,11.0366936 18.1628952,14.3701137 L18.1628952,18.942759 L20.2247,18.942759 C20.652877,18.942759 21,19.2898819 21,19.718059 C21,20.1462361 20.652877,20.493359 20.2247,20.493359 L3.77530004,20.493359 C3.34710535,20.493359 3,20.1462361 3,19.718059 C3,19.2898819 3.34710535,18.942759 3.77530004,18.942759 L6.08322728,18.942759 L6.08320966,14.3701137 Z M12.5602776,10.7659553 L9.58106388,15.6705915 L11.9637195,15.6705915 L11.367179,19.349073 L14.3463927,14.4444368 L11.9637019,14.4444368 L12.56026,10.7659553 L12.5602776,10.7659553 L12.5602776,10.7659553 Z" id="形状"></path>
            </g>
        </g>
    </g>
</svg>
