<?xml version="1.0" encoding="UTF-8"?>
<svg width="24px" height="24px" viewBox="0 0 24 24" version="1.1" xmlns="http://www.w3.org/2000/svg" xmlns:xlink="http://www.w3.org/1999/xlink">

    <g id="远控" stroke="none" stroke-width="1" fill="none" fill-rule="evenodd">
        <g id="切图" transform="translate(-290.000000, -13.000000)" fill="#FFFFFF" fill-rule="nonzero">
            <g id="警笛-down-2" transform="translate(290.000000, 13.000000)">
                <path d="M13,6.03 C15.2810958,6.29872875 17.0000564,8.23212974 17,10.529 L17,14.626 C16.9998902,14.9015651 17.1134984,15.1649623 17.314,15.354 L17.686,15.704 C17.8865016,15.8930377 18,16.1564349 18,16.432 L18,17 C18,17.5522847 17.5522847,18 17,18 L14.5,18 C14.167,19.333 13.333,20 12,20 C10.667,20 9.833,19.333 9.5,18 L7,18 C6.44771525,18 6,17.5522847 6,17 L6,16.414 C6,16.1488052 6.10545063,15.8944927 6.293,15.707 L6.707,15.293 C6.89454937,15.1055073 6.99994336,14.8511948 7,14.586 L7,10.5 C6.99955989,8.2078739 8.72206673,6.28168064 11,6.027 L11,5 C11,4.44771525 11.4477153,4 12,4 C12.5522847,4 13,4.44771525 13,5 L13,6.03 L13,6.03 Z" id="形状"></path>
            </g>
        </g>
    </g>
</svg>
