<?xml version="1.0" encoding="UTF-8"?>
<svg width="20px" height="20px" viewBox="0 0 20 20" version="1.1" xmlns="http://www.w3.org/2000/svg" xmlns:xlink="http://www.w3.org/1999/xlink">
 
    <g id="远控" stroke="none" stroke-width="1" fill="none" fill-rule="evenodd">
        <g id="切图" transform="translate(-18.000000, -150.000000)" fill="#575E70">
            <g id="警用设备" transform="translate(18.000000, 150.000000)">
                <path d="M15.5888636,9.72504264 L10.0161564,9.72504264 L10.0161564,17.4810143 C10.3745433,17.3896678 10.7644863,17.2504451 11.1858244,17.0624985 C11.6065184,16.8746367 12.0223825,16.6528802 12.4325311,16.3963815 C12.8434846,16.1399675 13.2382576,15.8555904 13.6183796,15.5424027 C13.998421,15.2292997 14.3337849,14.8925551 14.6270471,14.5336942 C14.9196654,14.1755959 15.152794,13.8027534 15.3270769,13.4151667 C15.5020844,13.0283426 15.5888636,12.6348242 15.5888636,12.2362217 L15.5888636,9.72504264 Z M10.0161564,3.25037821 L9.93847369,3.23343082 L4.4112491,4.2761188 L4.4112491,9.72504264 L10.0161564,9.72504264 L10.0161564,3.25037821 Z M17.0000322,3.42942735 L17.0000322,12.0659852 C17.0000322,12.5839821 16.8831459,13.0990132 16.6500978,13.6111632 C16.4162447,14.1247538 16.1110684,14.6206343 15.7330395,15.1025332 C15.355091,15.5836696 14.9231269,16.0398085 14.4380327,16.46934 C13.9522944,16.8997189 13.4601967,17.2828146 12.9610954,17.6188812 C12.4612696,17.9555411 11.9761754,18.2355967 11.5050882,18.4581158 C11.0339205,18.680635 10.6209544,18.8331615 10.266029,18.9164579 L10.0980251,18.9473869 L9.94402821,18.9164579 C9.58008678,18.8331615 9.1579437,18.680635 8.67703548,18.4581158 C8.19612725,18.2355967 7.69702598,17.9555411 7.17900716,17.6188812 C6.66106884,17.2828146 6.15287104,16.8997189 5.65304527,16.46934 C5.15394399,16.0398085 4.70805336,15.5836696 4.31601736,15.1025332 C3.92406186,14.6206343 3.60697155,14.1247538 3.36474643,13.6111632 C3.12115281,13.0990132 3,12.5839821 3,12.0659852 L3,3.42942735 L3.57404696,3.33587777 L10.0140634,2 L16.5800626,3.33587777 L17.0000322,3.42942735 Z" id="Fill-1"></path>
            </g>
        </g>
    </g>
</svg>
