<?xml version="1.0" encoding="UTF-8"?>
<svg width="24px" height="24px" viewBox="0 0 24 24" version="1.1" xmlns="http://www.w3.org/2000/svg" xmlns:xlink="http://www.w3.org/1999/xlink">

    <g id="远控" stroke="none" stroke-width="1" fill="none" fill-rule="evenodd">
        <g id="切图" transform="translate(-58.000000, -45.000000)" fill-rule="nonzero">
            <g id="-储物柜-down" transform="translate(58.000000, 45.000000)">
                <g id="suoding-mianxing" transform="translate(2.000000, 3.000000)">
                    <path d="M13.5,5.4 C14.9911688,5.4 16.2,6.60883117 16.2,8.09999999 L16.2,15.3 C16.2,16.7911688 14.9911688,18 13.5,18 L2.7,18 C1.20883117,18 0,16.7911688 0,15.3 L0,8.09999999 C0,6.60883117 1.20883117,5.4 2.7,5.4 L13.5,5.4 Z M8.09999999,9.44999999 C7.64372265,9.45006019 7.25968444,9.7915564 7.20629999,10.2447 L7.19999999,10.35 L7.19999999,13.05 L7.20629999,13.1553 C7.26015277,13.6080458 7.64406265,13.948997 8.09999999,13.948997 C8.55593734,13.948997 8.93984722,13.6080458 8.99369999,13.1553 L9,13.05 L9,10.35 L8.99369999,10.2447 C8.94031555,9.7915564 8.55627734,9.45006019 8.09999999,9.44999999 Z" id="形状结合" fill="#F7F9FD"></path>
                    <path d="M18.7,5.4 C18.7,4.8681 18.5623,4.1715 18.3787,3.789 C17.8063,2.5947 16.5319,1.80000001 15.0946,1.80000001 C13.1614,1.80000001 11.5999,3.222 11.5045,4.98600001 L11.5,5.157 L11.5,5.4 L9.7,5.4 L9.7,5.157 C9.7,2.2977 12.1264,0 15.0946,0 C17.2213,0 19.1284,1.188 20.0023,3.01230001 C20.2795,3.59010001 20.4613,4.42530002 20.4946,5.1597 L20.5,5.4 L18.7,5.4 Z" id="形状结合" fill="#F7FAFD"></path>
                </g>
            </g>
        </g>
    </g>
</svg>
