<?xml version="1.0" encoding="UTF-8"?>
<svg width="24px" height="24px" viewBox="0 0 24 24" version="1.1" xmlns="http://www.w3.org/2000/svg" xmlns:xlink="http://www.w3.org/1999/xlink">

    <g id="远控" stroke="none" stroke-width="1" fill="none" fill-rule="evenodd">
        <g id="切图" transform="translate(-152.000000, -13.000000)" fill="#FFFFFF" fill-rule="nonzero">
            <g id="警灯-down" transform="translate(152.000000, 13.000000)">
                <path d="M6.08320966,14.3701137 C6.08320966,11.036676 8.786258,8.33313429 12.1230436,8.33313429 C15.4598293,8.33313429 18.1628952,11.0366936 18.1628952,14.3701137 L18.1628952,18.942759 L20.2247,18.942759 C20.652877,18.942759 21,19.2898819 21,19.718059 C21,20.1462361 20.652877,20.493359 20.2247,20.493359 L3.77530004,20.493359 C3.34710535,20.493359 3,20.1462361 3,19.718059 C3,19.2898819 3.34710535,18.942759 3.77530004,18.942759 L6.08322728,18.942759 L6.08320966,14.3701137 Z M12.5602776,10.7659553 L9.58106388,15.6705915 L11.9637195,15.6705915 L11.367179,19.349073 L14.3463927,14.4444368 L11.9637019,14.4444368 L12.56026,10.7659553 L12.5602776,10.7659553 L12.5602776,10.7659553 Z M17.1290855,5.37832488 C17.4088102,5.54108503 17.5043836,5.90027801 17.3432798,6.17984416 L16.2723437,8.04119858 L15.2598019,7.45552989 L16.3307731,5.59417546 C16.4900621,5.31462694 16.847634,5.21908883 17.1255614,5.37832488 L17.1290855,5.37832488 Z M12.1212816,4 C12.4717877,4 12.7550189,4.26363725 12.7550189,4.59097245 L12.7550189,6.70001762 L11.4875619,6.70001762 L11.4875619,4.58921041 C11.4875443,4.26365487 11.7707755,4 12.1212816,4 L12.121264,4 L12.1212816,4 Z M7.1170194,5.37832488 C7.39494684,5.21730916 7.75250113,5.31284727 7.91360495,5.59065137 C7.91360495,5.59065137 7.91360495,5.59241342 7.91536699,5.59241342 L8.98633827,7.45376784 L7.9737788,8.03941892 L6.90280753,6.17806449 C6.74175656,5.89849835 6.83732991,5.54108503 7.11700178,5.37832488 L7.1170194,5.37832488 Z M3.45272236,9.05680639 C3.6120289,8.77722262 3.9696008,8.67990485 4.24930791,8.84092057 C4.24930791,8.84092057 4.25106995,8.84092057 4.25106995,8.84270024 L6.10620436,9.91846428 L5.52205102,10.9340721 L3.666899,9.85651076 C3.38722713,9.69551266 3.29161854,9.33631967 3.45272236,9.05677115 L3.45272236,9.05680639 Z M20.7933649,9.05680639 C20.9544687,9.33633729 20.8588602,9.69553028 20.5791883,9.85829042 L18.7240186,10.9322924 L18.1398653,9.91670223 L19.9949997,8.84092057 C20.2729271,8.67992247 20.6304814,8.77546058 20.7915853,9.05324706 C20.7915853,9.0550091 20.7933473,9.0550091 20.7933473,9.05677115 L20.7933473,9.05680639 L20.7933649,9.05680639 Z" id="形状"></path>
            </g>
        </g>
    </g>
</svg>
