<svg fill="none" viewBox="0 0 150 28" xmlns="http://www.w3.org/2000/svg"><path d="m35.1443.442075-15.5117 10.294925-15.52003-10.294925c-.39837-.264552-.86095-.4162781-1.33861-.43906636-.47768-.02278844-.95259.08421166-1.37433.30963736-.421748.225427-.774569.560861-1.021.970684-.246431.40983-.37727182.87873-.37862847 1.35695v21.71682c-.00051412.479.12896747.9493.37464647 1.3606.245677.4115.598344.7483 1.020422.975.42207.2267.89773.3346 1.3763.3122s.9421-.1742 1.3412-.4392l15.52003-10.297 15.5117 10.297c.3991.265.8627.4168 1.3413.4392.4784.0224.9541-.0855 1.3761-.3122.4223-.2267.7749-.5635 1.0206-.975.2457-.4113.375-.8816.3746-1.3606v-21.71682c-.0014-.47822-.1322-.94712-.3787-1.35695-.2464-.409823-.5992-.745257-1.021-.970684-.4216-.2254257-.8965-.3324258-1.3743-.30963736-.4777.02278826-.9402.17451436-1.3386.43906636zm-30.37496 20.156725v-14.19194l10.69266 7.09604zm29.72656 0-10.6948-7.0959 10.6948-7.09604z" fill="#3dbbd2"/><path d="m23.8011 13.5028 1.4067.9323-4.2016 2.7431-1.3736-.9095z" fill="#368a9d"/><path d="m18.2673 9.82739 1.4047.93231-4.2017 2.7431-1.3715-.9095z" fill="#368a9d"/><g fill="#fff"><path d="m50.9363.35144c4.1395 0 7.0015 2.67339 7.0015 6.58735 0 3.91401-2.8989 6.58741-7.1346 6.58741h-5.5317v-13.17476zm-2.3147 10.50136h2.3886c2.0522 0 3.5128-1.58078 3.5128-3.8955 0-2.31473-1.5437-3.93247-3.6698-3.93247h-2.2316z"/><path d="m69.247 9.32937h-7.1292c.3199 1.20363 1.1853 1.88213 2.3907 1.88213.4529-.0037.9006-.0971 1.3173-.2749.4166-.1777.7939-.4361 1.1103-.7605l1.7119 1.6751c-1.0334 1.1296-2.5589 1.7878-4.4225 1.7878-3.313 0-5.3817-2.0707-5.3817-5.1564 0-3.143 2.1445-5.21368 5.2874-5.21368 3.5721 0 5.3414 2.35171 5.1158 6.06045zm-3.1245-1.75085c0-1.24241-.7894-2.05218-1.956-2.05218-1.1296 0-1.9026.82827-2.1096 2.05218z"/><path d="m73.1055 13.5262-3.8214-10.14449h3.3499l2.1835 7.16979 2.2019-7.16979h3.2374l-3.8216 10.14449z"/><path d="m91.6991 1.66975-1.2609 2.61609c-1.3921-.80979-3.143-1.37552-4.2154-1.37552-.867 0-1.4494.31985-1.4494.96139 0 2.27589 6.9628.97802 6.9628 5.7406 0 2.63459-2.3333 4.02669-5.2693 4.02669-2.1864-.0131-4.3059-.7548-6.0234-2.1076l1.294-2.57913c1.3552 1.18693 3.3873 1.97643 4.7609 1.97643 1.0537 0 1.7138-.3957 1.7138-1.14815 0-2.33321-6.9644-.94105-6.9644-5.60934 0-2.42751 2.089-3.969428 5.2506-3.969428 1.9061 0 3.8455.582381 5.2007 1.467968z"/><path d="m103.105 9.32937h-7.135c.3199 1.20363 1.1869 1.88213 2.3905 1.88213.4529-.0035.9008-.0969 1.3174-.2746.4171-.1777.7941-.4363 1.1101-.7608l1.714 1.6751c-1.035 1.1296-2.5607 1.7878-4.4243 1.7878-3.3114 0-5.382-2.0707-5.382-5.1564 0-3.143 2.1445-5.21368 5.2895-5.21368 3.5758 0 5.3448 2.35171 5.1198 6.06045zm-3.125-1.75085c0-1.24241-.7912-2.05218-1.9579-2.05218-1.1295 0-1.9007.82827-2.1076 2.05218z"/><path d="m113.811 5.54666-2.33 1.41066c-.227-.33186-.534-.60188-.893-.78584-.358-.18393-.756-.27601-1.159-.26799-1.261 0-2.126 1.03533-2.126 2.56063 0 1.56038.865 2.57728 2.126 2.57728.925 0 1.638-.3698 2.071-1.14814l2.372 1.39214c-.828 1.4791-2.466 2.3536-4.611 2.3536-3.124 0-5.232-2.0707-5.232-5.1564 0-3.12452 2.126-5.21368 5.269-5.21368 2.01 0 3.629.82827 4.513 2.27774z"/><path d="m126.742 2.45914-1.94 2.29624c-.865-1.05383-2.144-1.71201-3.313-1.71201-2.089 0-3.67 1.66395-3.67 3.81968 0 2.20196 1.581 3.88255 3.67 3.88255 1.109 0 2.391-.6009 3.313-1.54195l1.958 2.06885c-1.412 1.4495-3.501 2.4035-5.439 2.4035-3.971 0-6.926-2.9175-6.926-6.77412 0-3.80304 3.029-6.655786 7.039-6.655786 1.99.019301 3.893.813126 5.308 2.213046z"/><path d="m138.277 8.44381c0 3.12449-2.219 5.19519-5.534 5.19519s-5.546-2.0707-5.546-5.19519c0-3.12452 2.218-5.17672 5.546-5.17672s5.534 2.0522 5.534 5.17672zm-7.81.03882c0 1.58077.925 2.63457 2.276 2.63457 1.352 0 2.259-1.0538 2.259-2.63457 0-1.58074-.924-2.63457-2.259-2.63457s-2.276 1.07231-2.276 2.63457z"/><path d="m150 7.12751v6.39879h-3.235v-5.49658c0-1.1851-.698-1.91909-1.79-1.91909-1.185 0-1.938.84678-2.069 2.05221v5.36156h-3.256v-10.14263h3.262v1.66395c.715-1.18695 1.882-1.78782 3.387-1.80814 2.233-.0074 3.701 1.51788 3.701 3.88993z"/><path d="m48.5857 21.3849c0 .2612-.0599.5009-.1799.7193-.1199.214-.3039.3874-.5523.5202s-.5567.1991-.9249.1991h-.6808v1.6185h-1.0983v-4.5087h1.7791c.3597 0 .6636.0621.912.1863s.4347.2954.5588.5138.1863.4689.1863.7515zm-1.7406.5652c.2099 0 .3661-.0493.4689-.1478.1027-.0984.1541-.2376.1541-.4174 0-.1799-.0514-.3191-.1541-.4175-.1028-.0984-.259-.1477-.4689-.1477h-.5973v1.1304z"/><path d="m50.7889 24.4935c-.3511 0-.6679-.075-.9505-.2248-.2785-.1498-.4989-.364-.6616-.6423-.1584-.2782-.2376-.6037-.2376-.9762 0-.3682.0812-.6916.2441-.9698.1626-.2826.3853-.4989.6679-.6487s.5994-.2248.9506-.2248c.3509 0 .6679.075.9505.2248s.5051.3661.668.6487c.1626.2782.244.6016.244.9698 0 .3681-.0834.6936-.2504.9762-.1629.2783-.3877.4925-.6744.6423-.2826.1498-.5996.2248-.9506.2248zm0-.9506c.2097 0 .3875-.077.5331-.2312.1498-.1541.2248-.3746.2248-.6615 0-.287-.0729-.5074-.2184-.6615-.1413-.1542-.317-.2313-.5266-.2313-.2142 0-.3918.0771-.5331.2313-.1413.1497-.2119.3704-.2119.6615 0 .2869.0683.5074.2055.6615.1413.1542.3168.2312.5266.2312z"/><path d="m58.3914 20.8583-.9698 3.5838h-1.2139l-.5652-2.325-.5844 2.325h-1.2075l-.9762-3.5838h1.0983l.5074 2.5626.6037-2.5626h1.1625l.6101 2.5498.501-2.5498z"/><path d="m62.1887 22.5924c0 .1027-.0064.2099-.0192.3211h-2.4856c.017.2227.0876.3939.2119.5138.1285.1156.2847.1734.4689.1734.2739 0 .4645-.1156.5716-.3468h1.1689c-.06.2356-.1692.4475-.3275.6359-.1542.1883-.3491.336-.5845.4431-.2355.1071-.4989.1606-.79.1606-.3511 0-.6638-.075-.9377-.2248-.2741-.1498-.4881-.364-.6422-.6423-.1542-.2782-.2313-.6037-.2313-.9762s.0748-.698.2248-.9763c.1542-.2782.3682-.4924.6423-.6422.2739-.1498.5886-.2248.9441-.2248.3469 0 .6551.0727.9249.2184.2697.1456.4794.3532.6294.623.1542.2697.2312.5844.2312.9441zm-1.1239-.289c0-.1884-.0643-.3384-.1927-.4496-.1285-.1113-.289-.167-.4817-.167-.1842 0-.3404.0534-.4689.1606-.1243.1071-.2013.2589-.2312.456z"/><path d="m63.8662 21.4555c.1285-.197.289-.3511.4817-.4624.1927-.1156.4067-.1734.6423-.1734v1.1625h-.3019c-.2741 0-.4796.0599-.6166.1798-.1369.1156-.2055.3212-.2055.6166v1.6635h-1.0983v-3.5839h1.0983z"/><path d="m68.8936 22.5924c0 .1027-.0065.2099-.0193.3211h-2.4856c.0172.2227.0879.3939.212.5138.1284.1156.2846.1734.4688.1734.2741 0 .4645-.1156.5716-.3468h1.169c-.0599.2356-.1691.4475-.3276.6359-.1541.1883-.3489.336-.5844.4431-.2356.1071-.4989.1606-.79.1606-.3512 0-.6636-.075-.9377-.2248s-.4882-.364-.6423-.6423c-.1541-.2782-.2312-.6037-.2312-.9762s.075-.698.2248-.9763c.1541-.2782.3681-.4924.6422-.6422s.5888-.2248.9442-.2248c.3468 0 .6551.0727.9248.2184.2698.1456.4797.3532.6294.623.1542.2697.2313.5844.2313.9441zm-1.124-.289c0-.1884-.0642-.3384-.1927-.4496-.1284-.1113-.289-.167-.4817-.167-.1842 0-.3404.0534-.4688.1606-.1241.1071-.2012.2589-.2312.456z"/><path d="m69.2544 22.6438c0-.3682.0686-.6916.2055-.9699.1413-.2782.3319-.4924.5716-.6422.24-.1498.5074-.2248.8029-.2248.2355 0 .4495.0493.6422.1477.1971.0984.3512.2312.4625.3982v-1.6635h1.0982v4.7528h-1.0982v-.5138c-.1028.1713-.2505.3083-.4432.411-.1883.1028-.4088.1542-.6615.1542-.2955 0-.5629-.075-.8029-.2248-.2397-.1542-.4303-.3705-.5716-.6487-.1369-.2826-.2055-.6081-.2055-.9762zm2.6847.0064c0-.2741-.0771-.4902-.2313-.6487-.1497-.1585-.3339-.2377-.5523-.2377s-.4046.0792-.5588.2377c-.1498.1541-.2248.3681-.2248.6423 0 .2741.075.4924.2248.6551.1542.1585.3404.2376.5588.2376s.4026-.0791.5523-.2376c.1542-.1585.2313-.3746.2313-.6487z"/><path d="m76.2914 21.3656c.1028-.1669.2505-.3018.4432-.4046.1926-.1027.4131-.1541.6615-.1541.2954 0 .5629.075.8028.2248.2397.1498.4281.364.5652.6422.1413.2783.212.6017.212.9699 0 .3681-.0707.6936-.212.9762-.1371.2782-.3255.4945-.5652.6487-.2399.1498-.5074.2248-.8028.2248-.2528 0-.4732-.0493-.6615-.1477-.1886-.1028-.3363-.2377-.4432-.4047v.501h-1.0983v-4.7528h1.0983zm1.5671 1.2782c0-.2742-.0771-.4882-.2312-.6423-.15-.1585-.3363-.2377-.5588-.2377-.2183 0-.4046.0792-.5587.2377-.15.1585-.2248.3746-.2248.6487s.0748.4902.2248.6487c.1541.1585.3404.2376.5587.2376.2184 0 .4047-.0791.5588-.2376.1541-.1627.2312-.381.2312-.6551z"/><path d="m83.2132 20.8583-2.248 5.2858h-1.1818l.8221-1.824-1.4579-3.4618h1.2267l.8285 2.2415.8222-2.2415z"/><path d="m101.602 22.3397h-.129v2.2092h-1.59v-5.5002l1.59-2.4796v5.1321c.317-.387 1.383-1.856 1.383-1.856h1.964l-1.862 1.9648 1.926 2.7427h-2.009zm-4.4323-.3607.652-2.1188h1.5752l-1.8466 4.6736c-.5501 1.4051-1.3378 2.3557-2.5135 2.3557-.4523 0-.8329-.1165-1.0326-.2292l.6331-.9768c.0943.0114.1923.0151.2903.0151.5426 0 .9495-.5261 1.2135-1.1497l-1.9372-4.6887h1.7826l.6972 2.0927c.1357.3982.2337 1.1571.2337 1.1571s.1243-.7326.2523-1.131zm-4.8047-.1087c0-.6125-.2714-.9017-.7877-.9017-.2524 0-.5161.0713-.6972.1803v3.4h-1.5901v-4.6436l1.5563-.1278-.0377.7589h.0526c.3355-.4508.9046-.7927 1.5829-.7927.814 0 1.5187.5035 1.5187 1.6944v3.1108h-1.5978zm-7.6275 2.4381.1432-1.0819c.4975.2442 1.0589.3607 1.5301.3607.3428 0 .5691-.1165.5691-.3232 0-.5936-2.1444-.4508-2.1444-2.0024 0-.9919.9121-1.5141 2.0538-1.5141.5692 0 1.157.154 1.5375.2893l-.1545 1.0632c-.3995-.154-.9421-.2967-1.3944-.2967-.2788 0-.5049.0976-.5049.278 0 .5859 2.1895.4695 2.1895 1.9836 0 1.0069-.8968 1.5853-2.1254 1.5853-.6783 0-1.2284-.1164-1.6996-.3418z"/></g></svg>