<svg viewBox="0 0 197.31 295.02" xmlns="http://www.w3.org/2000/svg"><path d="m92.21 278.8-80.49-56.17v-139.57l2-.72c1.23-.44 30.68-10.87 80.48-11.45h4.24 3v.11h.12c50.47.41 79.61 11 80.82 11.47l2 .73v139.52l-85.89 60.4z" fill="#c7c6c6"/><path d="m98.42 73.86 3 .1c50.59.41 79.87 11.28 79.87 11.28v135.9l-82.9 58.3-3.21-2.23-80.46-56.15v-135.9s29.63-10.69 79.49-11.27h4.21m0-6h-4.26c-50.31.59-80.23 11.18-81.48 11.63l-3.96 1.48v143.19l2.56 1.81 77.93 54.38 2.58 1.8 3.2 2.23 3.45 2.4 3.43-2.42 82.9-58.3 2.55-1.79v-143.21l-3.91-1.45c-1.22-.45-29.73-10.83-79-11.62v-.14h-6z" fill="#fff"/><path d="m98.42 279.46-83.7-58.4v-135.9s31.3-11.3 83.7-11.3z" fill="#dbdbdb"/><path d="m98.52 74h-.1v205.5l82.9-58.3v-135.94s-30.4-11.26-82.8-11.26z" fill="#c7c6c6"/></svg>