<svg viewBox="0 0 197.31 295.02" xmlns="http://www.w3.org/2000/svg"><path d="m117.72 229.76c0 10.5-10 15.8-19.2 15.8s-19.4-5.2-19.4-15.8" fill="#bc9476"/><path d="m98.52 235.26c-7.4 0-10.9-5.3-10.9-16.3h3.5c0 12.8 5 12.8 7.4 12.8s7.4 0 7.4-12.8h3.5c0 11.04-3.6 16.3-10.9 16.3z" fill="#fff"/><path d="m98.42 221.66c2.3 5.9 6.6 8.8 13.1 8.8s13-3.3 16-11.4c4.2-11.4 4.2-27.2 4.2-27.2s18.7-23.1 18.7-30.9h-52z" fill="#c49b7e"/><path d="m45.62 160.86c0 9 18.6 30.9 18.6 30.9s0 15.8 4.2 27.2c3 8.1 9.6 11.4 16 11.4s11.2-2.9 14-8.8v-60.8h-52.8z" fill="#d8b7a0"/><path d="m148.22 108.86c-14.4-14.6-18.1-45-18.1-45-2.7 9.6-8.6 37.9-8.6 37.9a86.12 86.12 0 0 0 -23.7-3.6q-.6 0 0 114.3l11.7-8.3 2.2-40.3 12.4 14 16 4.6 6-4.2a30.58 30.58 0 0 0 4-8.1c2.2-5.6-2.8-48.8-2.8-48.8-1.6-3.9.9-12.5.9-12.5z" fill="#3b3c63"/><path d="m75.52 101.66s-5.9-28.3-8.6-37.9c0 0-3.6 30.4-18.1 45 0 0 2.5 8.7.7 12.3 0 0-5 43.2-2.8 48.8a30.58 30.58 0 0 0 4 8.1l6 4.2 16-4.6 12.4-14 2.2 40.3 10.9 8.1v-114.3a77.43 77.43 0 0 0 -22.7 4z" fill="#54547b"/><path d="m138.12 35.56c2.4 4.4 23 45.1 23 59.2l-9.1 24.5c1.5 13.8 4.6 43.9 2.3 49.8-1.4 3.6-6.9 11.1-11.6 17.2l-7 21.5a64.06 64.06 0 0 1 -3.2 12.9 21.53 21.53 0 0 1 -10.1 11.9c-.3 13-12.4 19.9-23.8 19.9s-23.8-7-24-19.9a21.93 21.93 0 0 1 -10.1-11.9 66.19 66.19 0 0 1 -3.1-12.4l-7-21.9c-4.7-6.1-10.3-13.7-11.7-17.3-2.3-5.9.6-35.9 2.2-49.8l-9.7-25.4v-.8c0-14.1 21.1-53.1 23.5-57.5l6.8-12.4c4.2 28.6 6.3 42.9 6.3 43l3.4 23.2 4.4 7.2a63.63 63.63 0 0 1 18.8-3.4 64.28 64.28 0 0 1 18.9 3.4l4.4-7.2 9.6-66.2zm-39.5 207.8c5.1 0 12.3-2.3 14.1-8.2h-.6a26.35 26.35 0 0 1 -2.8-.2c-2.6 3.6-6.7 4.7-10.8 4.7s-8.2-1.1-10.8-4.7a26.35 26.35 0 0 1 -2.8.2h-.6c1.8 6 9.1 8.2 14.3 8.2zm-6-9.8a10.24 10.24 0 0 0 11.6 0 22.68 22.68 0 0 1 -3.4-1.9 9.86 9.86 0 0 1 -2.4.3 10.68 10.68 0 0 1 -2.5-.3 15 15 0 0 1 -3.3 1.9zm36-44.6c6.2-7.6 15.6-19.8 16.9-23.3 1-3.5-.7-26.9-2.9-46.5l-.1-1.1 1.8-4.9c-6-6.3-10.3-15-13.1-23.3l-.4 2.6-9.5 15.5-3.7-1.6c-.1 0-9.8-4.1-19.1-4.1s-18.9 4-19 4l-3.7 1.6-9.6-15.5-.3-2c-2.9 8.1-7.1 16.7-13.2 22.9l1.8 4.6-.1 1.1c-2.2 19.6-4 43-2.9 46.6 1.3 3.3 10.7 15.6 16.9 23.2l1 1.3v1.6c0 .2 0 15.2 3.9 25.7 2.8 7.6 9.1 8.4 11.6 8.4 6.4 0 9.1-5.8 9.3-6.1 1.5-2.9 2.3-7.7 2.3-14.4h3.9a39.27 39.27 0 0 0 2.4 14.4c.1.2 2.9 6 9.3 6 2.6 0 8.8-.8 11.6-8.4 3.9-10.5 3.9-25.5 3.9-25.7v-1.56z" fill="#333152"/><path d="m44.72 92.36c.5-7.3 8.3-24.8 15.6-39.6l2 13.5c-.8 5-4.2 24.8-13.4 37.3z" fill="#d8b7a0"/><path d="m134.72 65.16 1.8-12.4c7.4 14.8 15.1 32.3 15.6 39.6l-4.1 11c-9.9-13.8-13-36.1-13.3-38.2z" fill="#c49b7e"/><path d="m91.59 213.75c-3.5-2.6-7-5.8-7-8.3 0-1.6 3-6.7 3-6.7h22s2.9 4.5 2.9 6.7-3.6 5.5-7.2 8.1c-1.2-2.1-2.8-2.4-3.5-.8a6.24 6.24 0 0 0 -.3 3.3c-1.9 1.2-3.4 2-3.4 2s-1.1-.6-2.7-1.6a6.68 6.68 0 0 0 -.2-3.7c-.7-1.6-2.3-1.3-3.5.9 0-.1-.1 0-.1.1z" fill="#333152"/></svg>