<svg viewBox="0 0 197.31 295.02" xmlns="http://www.w3.org/2000/svg"><path d="m98.62 255.46c-12.42 0-25.69-7.39-26.91-21.14a24.94 24.94 0 0 1 -10-12.66 69.56 69.56 0 0 1 -3.21-12.72l-6.76-21.16c-6.83-8.88-10.58-14.49-11.8-17.63-2.65-6.81.4-37 1.93-50.5l-9.65-25.23v-1.36c0-14.45 19.88-51.63 23.86-58.93l11.11-20.25 1.3 8.85c5.14 35 6.1 41.59 6.29 43l3.32 22.59 2.84 4.68a67.54 67.54 0 0 1 17.38-2.82h.19a67.82 67.82 0 0 1 17.49 2.82l2.85-4.66 10.8-74.46 11.11 20.26c.23.43 23.37 44.73 23.37 60.64v.54l-9 24.34c4.22 39.1 3.19 47.55 2 50.51-1.22 3.13-5.05 8.87-11.7 17.53l-6.76 20.76a66.73 66.73 0 0 1 -3.31 13.23 24.69 24.69 0 0 1 -10 12.67 21.63 21.63 0 0 1 -8.84 15.45 30.29 30.29 0 0 1 -17.9 5.65z" fill="#333152"/><path d="m131.32 23.16 6.8 12.4c2.4 4.4 23 45.1 23 59.2l-9.1 24.5c1.5 13.8 4.6 43.9 2.3 49.8-1.4 3.6-6.9 11.1-11.6 17.2l-7 21.5a64.06 64.06 0 0 1 -3.2 12.9 21.53 21.53 0 0 1 -10.1 11.9c-.3 13-12.4 19.9-23.8 19.9s-23.8-7-24-19.9a21.93 21.93 0 0 1 -10.1-11.9 66.19 66.19 0 0 1 -3.1-12.4l-7-21.9c-4.7-6.1-10.3-13.7-11.7-17.3-2.3-5.9.6-35.9 2.2-49.8l-9.7-25.4v-.8c0-14.1 21.1-53.1 23.5-57.5l6.8-12.4c4.2 28.6 6.3 42.9 6.3 43l3.4 23.2 4.4 7.2a63.63 63.63 0 0 1 18.8-3.4 64.28 64.28 0 0 1 18.9 3.4l4.4-7.2zm-3.32-18.61-2.62 17.75-9.42 65-1.34 2.2a70.62 70.62 0 0 0 -16-2.31h-.37a70.63 70.63 0 0 0 -15.91 2.3l-1.34-2.21-3.23-22c-.27-2.09-1.41-9.9-6.28-43l-2.63-17.68-8.6 15.68-6.8 12.4c-5.69 10.43-24.24 45.59-24.24 60.38v1.94l.39 1 9.18 24c-.6 5.37-1.75 16.23-2.42 26.74-1.09 17-.23 21.93.76 24.46.89 2.31 3.07 6.43 11.89 17.95l6.53 20.43a73.48 73.48 0 0 0 3.3 13 27.9 27.9 0 0 0 10.05 13.42 24.39 24.39 0 0 0 9.91 16.14 33.83 33.83 0 0 0 19.81 6.29c13.18 0 27.31-7.82 29.51-22.4a27.83 27.83 0 0 0 10.05-13.4 70.89 70.89 0 0 0 3.41-13.54l6.51-20c8.83-11.52 11-15.71 11.81-17.86 1.45-3.72 2.36-12.74-1.78-51.21l8.61-23.18.38-1v-1.08c0-16.88-23.5-61.64-23.74-62.07l-6.8-12.41z" fill="#fff"/></svg>